# xmcd
#
# Track frame offsets:
#	182
#	20912
#	53505
#	74935
#	96032
#	117820
#	135832
#	153372
#	171865
#	191757
#	213282
#
# Disc length: 3066 seconds
#
# Revision: 3
# Processed by: cddbd v1.4PL0 Copyright (c) Steve Scherf et al.
# Submitted via: EasyCDDAExtractor 4.6.9.1
#
DISCID=970bf80b
DTITLE=Kirk Whalum - Unconditional
DYEAR=2000
DGENRE=Jazz
TTITLE0=Now 'Till Forever
TTITLE1=Groverworked and Underpaid
TTITLE2=God Must Have Spent  A Little More Time On You
TTITLE3=Unconditional
TTITLE4=Can't Stop The Rain
TTITLE5=Song For Evan
TTITLE6=I Try
TTITLE7=Playng With Fire
TTITLE8=Real Love (feat. Wendy Moten)
TTITLE9=Waltz For David
TTITLE10=There You 'll Be
EXTD=YEAR: 2000
EXTT0=
EXTT1=
EXTT2=
EXTT3=
EXTT4=
EXTT5=
EXTT6=
EXTT7=
EXTT8=
EXTT9=
EXTT10=
PLAYORDER=
